<?xml version="1.0" standalone="no"?>
<!DOCTYPE svg PUBLIC "-//W3C//DTD SVG 20010904//EN"
 "http://www.w3.org/TR/2001/REC-SVG-20010904/DTD/svg10.dtd">
<svg version="1.0" xmlns="http://www.w3.org/2000/svg"
 width="512.000000pt" height="512.000000pt" viewBox="0 0 512.000000 512.000000"
 preserveAspectRatio="xMidYMid meet">
<metadata>
Created by potrace 1.11, written by Peter Selinger 2001-2013
</metadata>
<g transform="translate(0.000000,512.000000) scale(0.100000,-0.100000)"
fill="#000000" stroke="none">
<path d="M2543 5063 c9 -2 25 -2 35 0 9 3 1 5 -18 5 -19 0 -27 -2 -17 -5z"/>
<path d="M2343 5053 c9 -2 23 -2 30 0 6 3 -1 5 -18 5 -16 0 -22 -2 -12 -5z"/>
<path d="M2753 5053 c9 -2 23 -2 30 0 6 3 -1 5 -18 5 -16 0 -22 -2 -12 -5z"/>
<path d="M919 4453 c-13 -16 -12 -17 4 -4 9 7 17 15 17 17 0 8 -8 3 -21 -13z"/>
<path d="M4180 4466 c0 -2 8 -10 18 -17 15 -13 16 -12 3 4 -13 16 -21 21 -21
13z"/>
<path d="M2195 4415 c-102 -19 -634 -114 -1140 -202 -259 -45 -446 -82 -455
-90 -13 -13 -13 -13 0 -9 16 6 379 71 1043 186 224 39 451 79 503 90 126 26
167 25 585 -9 195 -17 397 -33 449 -36 115 -8 503 -83 620 -120 117 -37 169
-65 224 -122 48 -48 111 -131 104 -138 -1 -2 -26 1 -53 6 -116 22 -545 79
-730 98 -422 43 -522 39 -639 -22 -66 -35 -81 -53 -95 -117 -9 -41 -2 -80 79
-420 50 -206 130 -544 179 -752 123 -514 127 -522 332 -606 159 -65 195 -69
787 -82 501 -12 534 -9 645 48 4 2 7 -77 7 -176 l0 -180 -40 -16 c-22 -9 -49
-16 -59 -16 -17 0 -19 -11 -23 -98 -3 -53 -3 -99 -2 -101 4 -4 64 12 100 26
11 4 14 -6 14 -43 0 -81 -20 -228 -32 -235 -24 -15 -321 -46 -1028 -109 -443
-39 -496 -46 -605 -75 -145 -40 -168 -38 -935 80 -251 39 -286 43 -300 30 -9
-8 -19 -15 -22 -15 -3 0 -8 87 -11 193 -4 119 -12 216 -21 255 -31 124 -135
288 -217 344 -93 62 -226 58 -301 -10 -81 -73 -124 -187 -138 -367 -24 -312
-23 -303 -45 -285 -8 6 -132 27 -277 45 -145 19 -287 38 -316 43 -28 5 -52 7
-52 4 0 -21 160 -273 170 -267 11 7 454 -71 479 -84 11 -6 46 -11 78 -11 93 0
227 -26 284 -56 52 -26 54 -26 173 -18 67 5 162 6 211 1 50 -4 216 -9 370 -10
291 -2 350 3 600 53 50 9 124 18 165 19 41 0 140 5 220 11 1031 70 1348 97
1427 121 33 11 122 108 124 138 1 9 3 27 4 41 13 145 26 563 22 705 -5 164
-34 433 -56 528 l-9 37 34 0 c45 0 65 32 71 113 7 92 -33 573 -52 627 -21 62
-103 146 -172 177 -50 23 -61 25 -110 16 -51 -9 -55 -8 -64 11 -46 112 -139
362 -139 376 0 32 -118 177 -177 220 -76 54 -217 98 -478 149 -185 36 -267 46
-695 81 -267 22 -499 40 -515 39 -17 0 -61 -7 -100 -14z m789 -887 c24 -34 19
-44 -9 -18 -14 13 -44 27 -68 31 l-42 6 52 2 c43 1 54 -3 67 -21z m1471 -55
c19 -9 34 -19 32 -22 -35 -61 -39 -89 -35 -216 l5 -130 -62 185 c-42 126 -58
187 -51 192 19 13 74 9 111 -9z m-1355 -97 c0 -12 -5 -7 -19 24 -11 24 -11 24
3 6 9 -11 16 -24 16 -30z m17 -68 c-3 -8 -6 -5 -6 6 -1 11 2 17 5 13 3 -3 4
-12 1 -19z m10 -75 c-3 -10 -5 -2 -5 17 0 19 2 27 5 18 2 -10 2 -26 0 -35z
m10 -105 c-2 -13 -4 -3 -4 22 0 25 2 35 4 23 2 -13 2 -33 0 -45z m10 -115 c-2
-16 -4 -5 -4 22 0 28 2 40 4 28 2 -13 2 -35 0 -50z m10 -110 c-2 -16 -4 -3 -4
27 0 30 2 43 4 28 2 -16 2 -40 0 -55z m3 -205 c-12 -43 -34 -68 -58 -68 -12 0
-9 4 8 13 33 16 48 64 51 157 l3 75 4 -70 c2 -38 -2 -87 -8 -107z m-97 -65
c-13 -2 -35 -2 -50 0 -16 2 -5 4 22 4 28 0 40 -2 28 -4z m1563 -940 c-17 -123
-16 -121 -48 -132 -17 -6 -35 -11 -39 -11 -11 0 -11 44 -3 118 6 44 10 52 28
52 12 0 28 5 36 10 27 18 32 10 26 -37z m-3172 -38 c65 -60 92 -197 61 -310
-44 -165 -166 -190 -233 -47 -36 77 -38 211 -5 284 30 66 67 98 113 98 26 0
45 -8 64 -25z"/>
<path d="M659 4193 c-13 -16 -12 -17 4 -4 9 7 17 15 17 17 0 8 -8 3 -21 -13z"/>
<path d="M4440 4206 c0 -2 8 -10 18 -17 15 -13 16 -12 3 4 -13 16 -21 21 -21
13z"/>
<path d="M1410 4030 c-360 -54 -728 -109 -818 -122 l-164 -23 -34 -57 c-105
-172 -217 -452 -273 -680 -33 -134 -38 -173 -20 -162 9 5 1911 105 1915 100 1
0 14 -80 29 -176 37 -247 71 -426 105 -565 l29 -120 6 -530 c3 -291 7 -531 9
-532 2 -2 124 -19 272 -38 148 -19 286 -37 307 -40 34 -5 38 -3 48 22 7 20 7
225 -1 698 -11 671 -20 837 -56 1035 -46 249 -200 922 -233 1013 -40 116 -119
209 -210 250 -36 16 -70 22 -151 24 -90 2 -197 -12 -760 -97z m1011 -551 c-80
-4 -154 -10 -163 -14 -9 -3 -25 -19 -34 -33 -16 -24 -18 -64 -22 -367 -6 -554
-17 -578 -24 -55 -4 256 -4 467 -1 470 2 3 89 12 191 20 166 13 188 13 193 0
5 -13 -16 -16 -140 -21z m-103 -1562 c60 -101 157 -207 227 -247 60 -34 186
-80 221 -80 12 0 25 -7 28 -16 9 -23 7 -452 -2 -457 -4 -3 -133 11 -288 31
l-281 36 -6 210 c-4 115 -7 329 -7 475 l1 266 30 -69 c16 -38 51 -105 77 -149z"/>
<path d="M63 2765 c0 -22 2 -30 4 -17 2 12 2 30 0 40 -3 9 -5 -1 -4 -23z"/>
<path d="M5052 2760 c0 -14 2 -19 5 -12 2 6 2 18 0 25 -3 6 -5 1 -5 -13z"/>
<path d="M53 2565 c0 -22 2 -30 4 -17 2 12 2 30 0 40 -3 9 -5 -1 -4 -23z"/>
<path d="M5062 2560 c0 -14 2 -19 5 -12 2 6 2 18 0 25 -3 6 -5 1 -5 -13z"/>
<path d="M63 2355 c0 -22 2 -30 4 -17 2 12 2 30 0 40 -3 9 -5 -1 -4 -23z"/>
<path d="M5052 2360 c0 -14 2 -19 5 -12 2 6 2 18 0 25 -3 6 -5 1 -5 -13z"/>
<path d="M91 2124 c0 -11 3 -14 6 -6 3 7 2 16 -1 19 -3 4 -6 -2 -5 -13z"/>
<path d="M4298 1713 c45 -3 74 -8 77 -16 2 -7 9 -52 16 -102 l13 -90 7 60 c8
64 3 122 -14 143 -6 8 -36 11 -91 10 l-81 -2 73 -3z"/>
<path d="M4057 1605 c-48 -58 -91 -113 -94 -123 -8 -23 -1 -16 99 103 92 110
103 125 91 125 -5 0 -48 -47 -96 -105z"/>
<path d="M3018 1678 l-58 -10 0 -37 c0 -74 12 -112 37 -122 58 -22 156 -29
322 -22 l173 6 -6 66 c-4 36 -9 81 -12 99 l-6 32 -197 -1 c-108 -1 -222 -6
-253 -11z m437 -10 c3 -7 8 -45 13 -85 l8 -72 -83 -6 c-110 -10 -340 -1 -380
14 -29 12 -31 16 -35 69 -2 31 -1 61 3 65 8 11 190 24 352 26 86 1 119 -2 122
-11z"/>
<path d="M3682 1670 c0 -14 2 -19 5 -12 2 6 2 18 0 25 -3 6 -5 1 -5 -13z"/>
<path d="M4363 1493 c9 -2 23 -2 30 0 6 3 -1 5 -18 5 -16 0 -22 -2 -12 -5z"/>
<path d="M4283 1483 c9 -2 23 -2 30 0 6 3 -1 5 -18 5 -16 0 -22 -2 -12 -5z"/>
<path d="M650 936 c0 -2 8 -10 18 -17 15 -13 16 -12 3 4 -13 16 -21 21 -21 13z"/>
<path d="M4449 923 c-13 -16 -12 -17 4 -4 9 7 17 15 17 17 0 8 -8 3 -21 -13z"/>
<path d="M4349 813 c-13 -16 -12 -17 4 -4 16 13 21 21 13 21 -2 0 -10 -8 -17
-17z"/>
<path d="M4299 763 c-13 -16 -12 -17 4 -4 9 7 17 15 17 17 0 8 -8 3 -21 -13z"/>
<path d="M910 676 c0 -2 8 -10 18 -17 15 -13 16 -12 3 4 -13 16 -21 21 -21 13z"/>
<path d="M2348 63 c6 -2 18 -2 25 0 6 3 1 5 -13 5 -14 0 -19 -2 -12 -5z"/>
<path d="M2748 63 c6 -2 18 -2 25 0 6 3 1 5 -13 5 -14 0 -19 -2 -12 -5z"/>
<path d="M2548 53 c6 -2 18 -2 25 0 6 3 1 5 -13 5 -14 0 -19 -2 -12 -5z"/>
</g>
</svg>
